<?xml version="1.0" encoding="utf-8"?>
<!-- Generator: Adobe Illustrator 26.0.1, SVG Export Plug-In . SVG Version: 6.00 Build 0)  -->
<svg version="1.1" id="Layer_1" xmlns="http://www.w3.org/2000/svg" xmlns:xlink="http://www.w3.org/1999/xlink" x="0px" y="0px"
	 viewBox="0 0 3000 3000" style="enable-background:new 0 0 3000 3000;" xml:space="preserve">
<path fill="#efc87b" d="M2313.45,956.81c-45.15-88.38-138.23-188.52-215.33-240.5c-9.7-6.53-56.53-47.99-70.09-102.69
	c16.44,1.4,40.05-3.33,72.33-24.16c0,0-40.59,4.59-75.94-0.95c-0.36-9.68,0.49-19.64,2.88-29.78c0,0,2.43-5.6,5.67-8.83
	c3.48-3.47,10.07-5.24,11.08-5.28c100.41-3.47,108.64,65.2,108.64,65.2s68.24-70.54-52.7-159.37
	c-30.98-22.75-64.23-32.15-96.78-33.37c-181.23-96.11-461.29-16.59-461.31-16.59c-22.84,7.67-46.45,15.39-69.63,26.51
	c-13.3,6.38-26.51,10.95-40.69,15.91c-41.05,13.65-89.23,24.65-136.83,24.03c0,0,28.19,16.22,74.71,22.07
	c-63.57,57.65-110.42,139.18-125.7,252.18c-10.31,76.22-6.82,90.21-4.17,119.32c7.13,78.45,26.26,197.16,60.75,318.12
	c47.73,167.42,118.6,323.86,133.68,354.29c39.44,79.55,82.42,166.78,130.93,258.11c27.3,51.39,60.92,95.24,88.61,123.72
	c0,0-46.21-11.71-102.17-65.94c-51.43-49.85-96.36-108.25-152.7-197.01c-70.05-110.39-131.68-263.03-180.4-397.19
	c0,0-37.71-95.78-64.09-325.98c-13.6-118.69,3.96-323.6,105.24-439.21c-3.23,1.32-535.61,357.86-590.86,694.04
	c0,0-68.52,301.55,215.37,644.93c0,0,498.15,624.29,635.2,848.81c0.74,1.34,21.38-28.4,54.57-74.44
	c21.44-29.71,47.26-67.1,77.29-107.94c16.02-21.82,271.14-360.36,302.3-407.06c0,0,175.05-312.98,66.4-640.56
	c-16.43-49.56-46-92.42-131.26-234.52c-61.72-102.86-135.67-352.36-64.88-528c2.25,4.09,0.57,38.92,8.7,80.96
	c18.44,95.33,60.96,254.2,106.02,343.39c40.01,79.13,142.3,224.62,153.5,255.56c42.67,117.78,95.73,219.95-11.54,564.83
	l97.36-126.58l73.24-110.54c0,0,36.9-66.83,51.05-95.33c19.27-42.36,47.98-118.32,62.25-168.09
	C2399.45,1290.75,2383.89,1094.7,2313.45,956.81z M1849.68,471.68l118.37,6.59C1874.34,546.86,1849.68,471.68,1849.68,471.68z"/>
</svg>
